<?xml version="1.0" encoding="UTF-8" standalone="no"?>
<svg
   width="16"
   height="16"
   version="1.1"
   id="svg1"
   sodipodi:docname="Node.svg"
   inkscape:version="1.3 (0e150ed6c4, 2023-07-21)"
   xmlns:inkscape="http://www.inkscape.org/namespaces/inkscape"
   xmlns:sodipodi="http://sodipodi.sourceforge.net/DTD/sodipodi-0.dtd"
   xmlns="http://www.w3.org/2000/svg"
   xmlns:svg="http://www.w3.org/2000/svg">
  <defs
     id="defs1" />
  <sodipodi:namedview
     id="namedview1"
     pagecolor="#505050"
     bordercolor="#eeeeee"
     borderopacity="1"
     inkscape:showpageshadow="0"
     inkscape:pageopacity="0"
     inkscape:pagecheckerboard="0"
     inkscape:deskcolor="#505050"
     inkscape:zoom="36.018252"
     inkscape:cx="11.355354"
     inkscape:cy="6.3717696"
     inkscape:window-width="1920"
     inkscape:window-height="1004"
     inkscape:window-x="-9"
     inkscape:window-y="-9"
     inkscape:window-maximized="1"
     inkscape:current-layer="svg1" />
  <path
     id="rect1"
     style="fill:#e0e0e0;stroke-width:0.531704;stroke-linejoin:round;stroke:none;fill-opacity:1"
     d="M 8 2 A 6 6 0 0 0 2 8 A 6 6 0 0 0 8 14 A 6 6 0 0 0 14 8 A 6 6 0 0 0 8 2 z M 5.78125 3.7460938 L 10.21875 3.7460938 C 11.069279 3.7460938 11.753906 4.4307206 11.753906 5.28125 L 11.753906 10.71875 C 11.753906 11.56928 11.069279 12.253906 10.21875 12.253906 L 5.78125 12.253906 C 4.9307206 12.253906 4.2460938 11.56928 4.2460938 10.71875 L 4.2460938 5.28125 C 4.2460938 4.4307206 4.9307206 3.7460938 5.78125 3.7460938 z " />
  <g
     id="g13"
     transform="translate(-0.0138816,-0.01178085)">
    <path
       style="fill:none;fill-opacity:1;stroke:#e0e0e0;stroke-width:0.842195;stroke-linecap:round;stroke-linejoin:round;stroke-dasharray:none;stroke-opacity:1"
       d="M 5.6178602,4.8752997 H 10.326611"
       id="path1" />
    <path
       style="fill:none;fill-opacity:1;stroke:#e0e0e0;stroke-width:0.842195;stroke-linecap:round;stroke-linejoin:round;stroke-dasharray:none;stroke-opacity:1"
       d="M 5.6456248,6.4435402 H 10.354375"
       id="path2" />
    <path
       style="fill:none;fill-opacity:1;stroke:#e0e0e0;stroke-width:0.842195;stroke-linecap:round;stroke-linejoin:round;stroke-dasharray:none;stroke-opacity:1"
       d="M 5.6733891,8.0117807 H 10.382139"
       id="path9" />
    <path
       style="fill:none;fill-opacity:1;stroke:#e0e0e0;stroke-width:0.842195;stroke-linecap:round;stroke-linejoin:round;stroke-dasharray:none;stroke-opacity:1"
       d="M 5.6733893,9.5800212 H 10.382139"
       id="path11" />
    <path
       style="fill:none;fill-opacity:1;stroke:#e0e0e0;stroke-width:0.842195;stroke-linecap:round;stroke-linejoin:round;stroke-dasharray:none;stroke-opacity:1"
       d="M 5.7011535,11.148262 H 10.409903"
       id="path13" />
  </g>
</svg>
